<svg width="32" height="32" viewBox="0 0 32 32" fill="none" xmlns="http://www.w3.org/2000/svg">
<path d="M18.8336 11.5214L12.4474 17.3915C12.2622 17.5559 12.1144 17.7526 12.0128 17.9701C11.9111 18.1876 11.8576 18.4215 11.8554 18.6582C11.8532 18.8949 11.9022 19.1296 11.9997 19.3487C12.0973 19.5677 12.2413 19.7668 12.4233 19.9342C12.6054 20.1015 12.822 20.2339 13.0603 20.3235C13.2986 20.4131 13.554 20.4583 13.8115 20.4562C14.069 20.4541 14.3235 20.405 14.5601 20.3115C14.7967 20.2181 15.0107 20.0823 15.1896 19.9121L21.409 14.042C22.1156 13.3696 22.5065 12.469 22.4977 11.5342C22.4889 10.5994 22.0809 9.70524 21.3618 9.04422C20.6427 8.3832 19.6698 8.00826 18.6529 8.00013C17.6359 7.99201 16.6561 8.35136 15.9246 9.00079L9.7042 14.87C8.61302 15.873 8 17.2333 8 18.6518C8 20.0702 8.61302 21.4305 9.7042 22.4335C10.7954 23.4365 12.2753 24 13.8185 24C15.3617 24 16.8416 23.4365 17.9328 22.4335L24 16.8692" stroke="#5B5B5B" stroke-width="2" stroke-linecap="round" stroke-linejoin="round"/>
</svg>
