<svg width="11" height="12" viewBox="0 0 11 12" fill="none" xmlns="http://www.w3.org/2000/svg">
<path d="M2.39866 11.116C2.39866 10.9947 2.37532 10.934 2.32866 10.934L2.00666 11.088C2.00666 11.0227 1.96932 10.976 1.89466 10.948L1.78266 10.934C1.70799 10.934 1.61466 10.9667 1.50266 11.032C1.48399 10.9853 1.46066 10.9387 1.43266 10.892C1.40466 10.8453 1.38132 10.8033 1.36266 10.766C1.24132 10.5327 1.11999 10.276 0.998656 9.996C0.886656 9.70667 0.779323 9.43133 0.676656 9.17C0.583323 8.90867 0.508656 8.70333 0.452656 8.554C0.415323 8.43267 0.373323 8.25067 0.326656 8.008C0.27999 7.76533 0.233323 7.45733 0.186656 7.084C0.289323 7.14933 0.368656 7.182 0.424656 7.182C0.48999 7.182 0.550656 7.084 0.606656 6.888C0.634656 6.92533 0.68599 6.944 0.760656 6.944C0.816656 6.944 0.858656 6.92533 0.886656 6.888L1.11066 6.552L1.36266 6.636H1.37666C1.39532 6.636 1.41399 6.62667 1.43266 6.608C1.45132 6.58933 1.47932 6.57067 1.51666 6.552C1.59132 6.50533 1.64732 6.482 1.68466 6.482L1.72666 6.496C1.95999 6.608 2.10932 6.81333 2.17466 7.112C2.34266 7.82133 2.51066 8.176 2.67866 8.176C2.84666 8.176 3.04266 7.99867 3.26666 7.644C3.37866 7.46667 3.49066 7.26133 3.60266 7.028C3.72399 6.79467 3.84532 6.53333 3.96666 6.244C3.98532 6.356 4.00399 6.412 4.02266 6.412C4.06932 6.412 4.14866 6.29533 4.26066 6.062C4.38199 5.82867 4.57332 5.50667 4.83466 5.096C4.98399 4.844 5.17066 4.55933 5.39466 4.242C5.62799 3.92467 5.87532 3.598 6.13666 3.262C6.39799 2.926 6.64999 2.60867 6.89266 2.31C7.14466 2.01133 7.36866 1.75467 7.56466 1.54C7.76066 1.32533 7.90532 1.18533 7.99866 1.12C8.35332 0.877333 8.63332 0.643999 8.83866 0.42C8.82932 0.485333 8.81532 0.545999 8.79666 0.602C8.78732 0.648666 8.78266 0.681333 8.78266 0.699999C8.78266 0.737333 8.80132 0.755999 8.83866 0.755999L9.23066 0.559999V0.616C9.23066 0.690666 9.24932 0.728 9.28666 0.728C9.31466 0.728 9.37066 0.686 9.45466 0.602C9.53866 0.518 9.58532 0.457333 9.59466 0.42L9.56666 0.616L10.0427 0.336L9.93066 0.588C10.08 0.485333 10.1873 0.433999 10.2527 0.433999C10.29 0.433999 10.318 0.457333 10.3367 0.503999C10.3553 0.541333 10.3647 0.578666 10.3647 0.616C10.3647 0.671999 10.3413 0.737333 10.2947 0.812C10.248 0.886666 10.1873 0.975333 10.1127 1.078C10.0567 1.15267 9.96332 1.26467 9.83266 1.414C9.71132 1.554 9.52466 1.764 9.27266 2.044C9.02066 2.31467 8.68466 2.69267 8.26466 3.178C8.15266 3.29933 7.97999 3.514 7.74666 3.822C7.51332 4.12067 7.24732 4.47067 6.94866 4.872C6.65932 5.264 6.36999 5.66067 6.08066 6.062C5.79132 6.46333 5.53466 6.82733 5.31066 7.154C5.08666 7.47133 4.92799 7.70933 4.83466 7.868L3.96666 9.338C3.77999 9.65533 3.62599 9.91667 3.50466 10.122C3.38332 10.318 3.28999 10.4533 3.22466 10.528C3.08466 10.696 2.93066 10.8453 2.76266 10.976L2.63666 10.906L2.52466 10.976L2.39866 11.116Z" fill="#395185"/>
</svg>
