<svg width="17" height="14" viewBox="0 0 17 14" fill="none" xmlns="http://www.w3.org/2000/svg">
<path d="M8.49979 0.5C6.58352 0.5 4.75961 1.23153 3.4116 2.3286C2.07087 3.41975 1.14291 4.92447 1.14291 6.5C1.14291 7.9988 1.96162 9.1939 2.56945 9.84204L2.57075 9.84341L3.02231 10.3213L2.88214 10.8412C2.85623 10.9013 2.80202 10.9978 2.71291 11.1311C2.61851 11.2724 2.50221 11.4298 2.37836 11.5924C2.32491 11.6626 2.26817 11.736 2.21088 11.8101C2.02172 12.0549 1.82663 12.3073 1.72479 12.4761L1.25639 13.2525C1.21519 13.226 1.18191 13.1877 1.16194 13.1414C1.14742 13.1078 1.13326 13.0762 1.12142 13.0499L1.11662 13.0392C1.11503 13.0356 1.11349 13.0322 1.112 13.0288C1.11536 13.0251 1.11884 13.0213 1.12244 13.0173C1.15486 12.9812 1.19923 12.9307 1.25271 12.8673C1.3596 12.7406 1.5044 12.5609 1.66376 12.3414C1.97966 11.9063 2.36594 11.2971 2.62059 10.6237L2.73099 10.3318L2.51719 10.1044C1.55913 9.08536 0.999786 7.84117 0.999786 6.5C0.999786 3.27754 4.25514 0.5 8.49979 0.5ZM8.49979 0.5C10.4161 0.5 12.2401 1.23152 13.5882 2.32859C14.9291 3.41971 15.8572 4.92444 15.8572 6.5C15.8572 8.0752 14.9392 9.56359 13.6004 10.639C12.255 11.7198 10.4313 12.4312 8.49979 12.4312C7.63567 12.4312 6.78092 12.3018 5.96039 12.049L5.59794 12.0293L5.74683 12.0762C6.60354 12.346 7.52795 12.5 8.49979 12.5C12.7444 12.5 15.9998 9.72246 15.9998 6.5C15.9998 3.27754 12.7444 0.5 8.49979 0.5ZM5.2182 12.0087L5.48025 12.0229L5.30777 12.145C4.5991 12.6467 3.5693 13.1277 2.15744 13.2582L2.30618 13.2103C2.51128 13.1443 2.72208 13.0843 2.9471 13.0203C3.14017 12.9653 3.34371 12.9074 3.56309 12.8401C3.98081 12.712 4.45143 12.5509 4.75056 12.3397L4.75094 12.3394L5.2182 12.0087Z" stroke="#00B800"/>
</svg>
