<svg width="13" height="12" viewBox="0 0 13 12" fill="none" xmlns="http://www.w3.org/2000/svg">
<g clip-path="url(#clip0)">
<mask id="path-1-inside-1" fill="white">
<path d="M6.0811 0.75C2.76704 0.75 0.0811005 2.93203 0.0811005 5.625C0.0811005 6.74062 0.547507 7.7625 1.32094 8.58516C0.971726 9.50859 0.245163 10.2914 0.233444 10.3008C0.0787567 10.4648 0.144381 10.5485 0.233443 10.7547C0.322506 10.961 0.526412 11.0946 0.751412 11.0946C2.19282 11.0946 3.22173 10.6477 3.90376 10.1648C4.5811 10.3781 5.31235 10.5 6.0811 10.5C9.39517 10.5 12.0811 8.31797 12.0811 5.625C12.0811 2.93203 9.39517 0.75 6.0811 0.75ZM6.0811 9.69844C5.45532 9.69844 4.83657 9.60234 4.2436 9.41484L3.50987 9.375L3.05284 9.69844C2.71768 9.93516 1.87407 10.1227 1.32094 10.3008C1.49204 10.0172 2.09525 9.33984 2.22415 9L2.38969 8.38594L1.90688 7.875C1.48266 7.42266 0.93844 6.61406 0.93844 5.625C0.93844 3.55781 3.39282 1.5 6.0811 1.5C8.76938 1.5 11.2242 3.55781 11.2242 5.625C11.2242 7.69219 8.79865 9.69844 6.0811 9.69844Z"/>
</mask>
<path d="M1.32094 8.58516L2.25629 8.93888L2.47711 8.35499L2.04951 7.90018L1.32094 8.58516ZM0.233444 10.3008L-0.391251 9.51991L-0.446025 9.56373L-0.494145 9.61477L0.233444 10.3008ZM3.90376 10.1648L4.2041 9.21101L3.73089 9.06201L3.32597 9.34865L3.90376 10.1648ZM4.2436 9.41484L4.54509 8.46137L4.42431 8.42318L4.29782 8.41631L4.2436 9.41484ZM3.50987 9.375L3.56409 8.37647L3.21642 8.35759L2.9322 8.55873L3.50987 9.375ZM3.05284 9.69844L3.62974 10.5152L3.63051 10.5147L3.05284 9.69844ZM1.32094 10.3008L0.464703 9.78421L-0.915221 12.0715L1.62748 11.2526L1.32094 10.3008ZM2.22415 9L3.15915 9.35465L3.17676 9.30823L3.18968 9.26029L2.22415 9ZM2.38969 8.38594L3.35523 8.64623L3.50089 8.10588L3.11652 7.69912L2.38969 8.38594ZM1.90688 7.875L1.17746 8.55907L1.18005 8.56182L1.90688 7.875ZM6.0811 -0.25C2.41883 -0.25 -0.9189 2.19569 -0.9189 5.625H1.0811C1.0811 3.66837 3.11524 1.75 6.0811 1.75V-0.25ZM-0.9189 5.625C-0.9189 7.03329 -0.327432 8.29179 0.592379 9.27013L2.04951 7.90018C1.42245 7.23321 1.0811 6.44796 1.0811 5.625H-0.9189ZM0.385595 8.23143C0.254656 8.57767 0.0410742 8.92325 -0.158563 9.1982C-0.255563 9.3318 -0.343014 9.44019 -0.405042 9.51369C-0.435987 9.55036 -0.459838 9.57744 -0.474459 9.5937C-0.481911 9.60199 -0.486055 9.60646 -0.486844 9.6073C-0.487508 9.60801 -0.485464 9.60581 -0.481528 9.60175C-0.479849 9.60002 -0.475009 9.59503 -0.468365 9.58847C-0.465169 9.58531 -0.458809 9.57907 -0.450536 9.5713C-0.447198 9.56817 -0.423558 9.54576 -0.391251 9.51991L0.858139 11.0816C0.89063 11.0557 0.91454 11.033 0.918235 11.0295C0.926865 11.0214 0.933667 11.0148 0.937391 11.0111C0.945091 11.0035 0.951327 10.9971 0.954735 10.9936C0.96213 10.9859 0.968961 10.9787 0.974347 10.9729C0.98566 10.9608 0.998668 10.9466 1.01289 10.9308C1.04161 10.8988 1.07917 10.856 1.12344 10.8035C1.21186 10.6988 1.33007 10.552 1.45983 10.3733C1.71371 10.0236 2.03801 9.51608 2.25629 8.93888L0.385595 8.23143ZM-0.494145 9.61477C-0.581043 9.70693 -0.690791 9.84323 -0.76755 10.0276C-0.852213 10.231 -0.874352 10.4385 -0.850594 10.6331C-0.829889 10.8027 -0.776613 10.9375 -0.750291 11.0013C-0.735714 11.0366 -0.720707 11.0701 -0.711003 11.0917C-0.699686 11.117 -0.692355 11.1333 -0.684619 11.1512L1.15151 10.3583C1.13698 10.3246 1.12277 10.2932 1.11406 10.2737C1.10373 10.2507 1.10021 10.2425 1.09853 10.2385C1.09233 10.2234 1.12217 10.2884 1.13467 10.3908C1.15022 10.5182 1.13512 10.6611 1.07887 10.7962C1.03053 10.9123 0.970588 10.9767 0.961034 10.9868L-0.494145 9.61477ZM-0.684619 11.1512C-0.436664 11.7254 0.129152 12.0946 0.751412 12.0946V10.0946C0.923673 10.0946 1.08168 10.1966 1.15151 10.3583L-0.684619 11.1512ZM0.751412 12.0946C2.41365 12.0946 3.64225 11.5752 4.48154 10.981L3.32597 9.34865C2.8012 9.72014 1.97199 10.0946 0.751412 10.0946V12.0946ZM3.60342 11.1187C4.3736 11.3612 5.20603 11.5 6.0811 11.5V9.5C5.41868 9.5 4.7886 9.39506 4.2041 9.21101L3.60342 11.1187ZM6.0811 11.5C9.74337 11.5 13.0811 9.05431 13.0811 5.625H11.0811C11.0811 7.58163 9.04696 9.5 6.0811 9.5V11.5ZM13.0811 5.625C13.0811 2.19569 9.74337 -0.25 6.0811 -0.25V1.75C9.04696 1.75 11.0811 3.66837 11.0811 5.625H13.0811ZM6.0811 8.69844C5.55793 8.69844 5.04084 8.61813 4.54509 8.46137L3.94211 10.3683C4.6323 10.5866 5.35271 10.6984 6.0811 10.6984V8.69844ZM4.29782 8.41631L3.56409 8.37647L3.45565 10.3735L4.18938 10.4134L4.29782 8.41631ZM2.9322 8.55873L2.47517 8.88217L3.63051 10.5147L4.08754 10.1913L2.9322 8.55873ZM2.47593 8.88163C2.48761 8.87337 2.45725 8.89512 2.34898 8.93819C2.25043 8.9774 2.12547 9.01952 1.97543 9.06553C1.82587 9.1114 1.66914 9.15582 1.503 9.2033C1.34264 9.24912 1.17081 9.29855 1.01441 9.34892L1.62748 11.2526C1.92871 11.1556 2.1483 11.1045 2.56183 10.9776C2.8607 10.886 3.31079 10.7405 3.62974 10.5152L2.47593 8.88163ZM2.17719 10.8174C2.17718 10.8174 2.17804 10.8159 2.17997 10.8129C2.18187 10.81 2.18453 10.8059 2.18806 10.8007C2.19523 10.79 2.20476 10.7762 2.21707 10.759C2.24206 10.724 2.27356 10.6817 2.31222 10.6309C2.35077 10.5801 2.39284 10.5257 2.43934 10.4655C2.48498 10.4064 2.53446 10.3423 2.58394 10.2773C2.68146 10.1493 2.78925 10.0043 2.88408 9.86245C2.96983 9.73416 3.08486 9.55052 3.15915 9.35465L1.28916 8.64535C1.299 8.6194 1.29028 8.64787 1.22133 8.75103C1.16146 8.8406 1.08358 8.94641 0.992798 9.06563C0.948127 9.12428 0.902793 9.18299 0.856511 9.24291C0.811083 9.30172 0.764105 9.36253 0.720031 9.42051C0.639831 9.52601 0.538878 9.66126 0.464703 9.78421L2.17719 10.8174ZM3.18968 9.26029L3.35523 8.64623L1.42416 8.12565L1.25862 8.73971L3.18968 9.26029ZM3.11652 7.69912L2.63371 7.18818L1.18005 8.56182L1.66287 9.07276L3.11652 7.69912ZM2.6363 7.19093C2.29651 6.82861 1.93844 6.25397 1.93844 5.625H-0.0615597C-0.0615597 6.97415 0.668821 8.0167 1.17746 8.55907L2.6363 7.19093ZM1.93844 5.625C1.93844 4.98622 2.33236 4.21441 3.13289 3.56291C3.91883 2.92327 4.98513 2.5 6.0811 2.5V0.5C4.48879 0.5 2.98376 1.10564 1.87044 2.0117C0.771712 2.9059 -0.0615597 4.19659 -0.0615597 5.625H1.93844ZM6.0811 2.5C7.17708 2.5 8.2435 2.92328 9.02955 3.56294C9.8302 4.21448 10.2242 4.98628 10.2242 5.625H12.2242C12.2242 4.19653 11.3907 2.90584 10.2919 2.01167C9.17852 1.10563 7.6734 0.5 6.0811 0.5V2.5ZM10.2242 5.625C10.2242 6.26444 9.83677 7.02164 9.04545 7.65729C8.2674 8.28229 7.20016 8.69844 6.0811 8.69844V10.6984C7.67959 10.6984 9.18388 10.1115 10.298 9.21653C11.3988 8.33226 12.2242 7.05275 12.2242 5.625H10.2242Z" fill="black" mask="url(#path-1-inside-1)"/>
</g>
<defs>
<clipPath id="clip0">
<rect width="12" height="12" fill="white" transform="translate(0.0812683)"/>
</clipPath>
</defs>
</svg>
