<svg width="14" height="14" viewBox="0 0 14 14" fill="none" xmlns="http://www.w3.org/2000/svg">
<path d="M11.2 7.50401C11.2 8.09201 10.724 8.40001 10.08 8.40001H8.20401C8.34401 8.90401 8.40001 9.38001 8.40001 9.80001C8.40001 11.424 7.95201 11.76 7.56001 11.76C7.30801 11.76 7.11201 11.732 6.86001 11.592C6.77601 11.536 6.74801 11.48 6.72001 11.396L6.44001 9.88401C6.13201 9.10001 5.37601 8.40001 4.76001 7.92401V3.92001C4.98401 3.92001 5.20801 3.80801 5.48801 3.66801C5.79601 3.52801 6.10401 3.36001 6.44001 3.36001H9.10001C9.66001 3.36001 10.08 3.80801 10.08 4.20001C10.08 4.28401 10.08 4.34001 10.052 4.39601C10.388 4.53601 10.64 4.81601 10.64 5.18001C10.64 5.34801 10.612 5.48801 10.556 5.62801C10.78 5.76801 10.976 6.02001 10.976 6.30001C10.976 6.46801 10.892 6.63601 10.808 6.77601C11.032 6.94401 11.2 7.22401 11.2 7.50401ZM10.612 7.50401C10.612 7.14001 10.248 7.11201 10.192 6.94401C10.136 6.74801 10.416 6.69201 10.416 6.35601C10.416 6.02001 9.99601 6.02001 9.94001 5.82401C9.88401 5.60001 10.08 5.54401 10.08 5.20801V5.15201C10.024 4.87201 9.60401 4.84401 9.52001 4.73201C9.43601 4.59201 9.52001 4.53601 9.52001 4.22801C9.52001 4.06001 9.32401 3.94801 9.10001 3.94801H6.44001C6.21601 3.94801 5.99201 4.06001 5.71201 4.20001C5.48801 4.31201 5.26401 4.42401 5.04001 4.48001V7.42001C5.74001 7.95201 6.63601 8.73601 6.97201 9.71601V9.77201L7.22401 11.172C7.33601 11.2 7.42001 11.2 7.56001 11.2C7.61601 11.2 7.84001 10.864 7.84001 9.80001C7.84001 9.38001 7.75601 8.93201 7.61601 8.40001H7.56001C7.39201 8.40001 7.28001 8.28801 7.28001 8.12001C7.28001 7.95201 7.39201 7.84001 7.56001 7.84001H10.08C10.36 7.84001 10.612 7.70001 10.612 7.50401Z" fill="#748188"/>
<path d="M4.47999 3.36002H2.79999C2.49199 3.36002 2.23999 3.61202 2.23999 3.92002V7.84002C2.23999 8.14802 2.49199 8.40002 2.79999 8.40002H4.47999C4.78799 8.40002 5.03999 8.14802 5.03999 7.84002V3.92002C5.03999 3.61202 4.78799 3.36002 4.47999 3.36002ZM2.79999 7.84002V3.92002H4.47999V7.84002H2.79999Z" fill="#748188"/>
</svg>
