<svg width="14" height="14" viewBox="0 0 14 14" fill="none" xmlns="http://www.w3.org/2000/svg">
<path d="M11.2 6.49599C11.2 5.90799 10.724 5.59999 10.08 5.59999H8.20401C8.34401 5.09599 8.40001 4.61999 8.40001 4.19999C8.40001 2.57599 7.95201 2.23999 7.56001 2.23999C7.30801 2.23999 7.11201 2.26799 6.86001 2.40799C6.77601 2.46399 6.74801 2.51999 6.72001 2.60399L6.44001 4.11599C6.13201 4.89999 5.37601 5.59999 4.76001 6.07599V10.08C4.98401 10.08 5.20801 10.192 5.48801 10.332C5.79601 10.472 6.10401 10.64 6.44001 10.64H9.10001C9.66001 10.64 10.08 10.192 10.08 9.79999C10.08 9.71599 10.08 9.65999 10.052 9.60399C10.388 9.46399 10.64 9.18399 10.64 8.81999C10.64 8.65199 10.612 8.51199 10.556 8.37199C10.78 8.23199 10.976 7.97999 10.976 7.69999C10.976 7.53199 10.892 7.36399 10.808 7.22399C11.032 7.05599 11.2 6.77599 11.2 6.49599ZM10.612 6.49599C10.612 6.85999 10.248 6.88799 10.192 7.05599C10.136 7.25199 10.416 7.30799 10.416 7.64399C10.416 7.97999 9.99601 7.97999 9.94001 8.17599C9.88401 8.39999 10.08 8.45599 10.08 8.79199V8.84799C10.024 9.12799 9.60401 9.15599 9.52001 9.26799C9.43601 9.40799 9.52001 9.46399 9.52001 9.77199C9.52001 9.93999 9.32401 10.052 9.10001 10.052H6.44001C6.21601 10.052 5.99201 9.93999 5.71201 9.79999C5.48801 9.68799 5.26401 9.57599 5.04001 9.51999V6.57999C5.74001 6.04799 6.63601 5.26399 6.97201 4.28399V4.22799L7.22401 2.82799C7.33601 2.79999 7.42001 2.79999 7.56001 2.79999C7.61601 2.79999 7.84001 3.13599 7.84001 4.19999C7.84001 4.61999 7.75601 5.06799 7.61601 5.59999H7.56001C7.39201 5.59999 7.28001 5.71199 7.28001 5.87999C7.28001 6.04799 7.39201 6.15999 7.56001 6.15999H10.08C10.36 6.15999 10.612 6.29999 10.612 6.49599Z" fill="#748188"/>
<path d="M4.47999 10.64H2.79999C2.49199 10.64 2.23999 10.388 2.23999 10.08V6.15998C2.23999 5.85198 2.49199 5.59998 2.79999 5.59998H4.47999C4.78799 5.59998 5.03999 5.85198 5.03999 6.15998V10.08C5.03999 10.388 4.78799 10.64 4.47999 10.64ZM2.79999 6.15998V10.08H4.47999V6.15998H2.79999Z" fill="#748188"/>
</svg>
