<svg width="16" height="18" viewBox="0 0 16 18" fill="none" xmlns="http://www.w3.org/2000/svg">
<path d="M8.04373 1.40498C8.30623 0.753731 9.03749 0.0549809 9.97624 0.314981C10.7137 0.519981 11.1925 0.966231 11.4675 1.56123C11.7225 2.11498 11.785 2.76623 11.7975 3.38873C11.81 4.05623 11.67 4.85873 11.5062 5.55998C11.4331 5.8704 11.3518 6.17884 11.2625 6.48498H12.9937C13.3823 6.48495 13.7655 6.57549 14.113 6.74942C14.4605 6.92336 14.7626 7.17589 14.9954 7.48698C15.2283 7.79807 15.3854 8.15915 15.4543 8.54156C15.5232 8.92397 15.5021 9.31718 15.3925 9.68998L13.6875 15.4975C13.5704 15.8959 13.375 16.267 13.1129 16.589C12.8507 16.9111 12.527 17.1777 12.1606 17.3732C11.7943 17.5687 11.3926 17.6892 10.9791 17.7277C10.5657 17.7663 10.1487 17.722 9.75249 17.5975L3.05748 15.495C2.69542 15.3813 2.36398 15.1868 2.08827 14.926C1.81257 14.6653 1.59985 14.3452 1.46623 13.99L0.816235 12.26C0.609374 11.7094 0.603258 11.1035 0.798962 10.5489C0.994666 9.99422 1.37966 9.52633 1.88623 9.22748L4.22623 7.84623C4.46204 7.65974 4.68081 7.45267 4.87998 7.22748C5.30998 6.74248 5.90123 5.93373 6.49498 4.67248C6.75123 4.12748 6.96623 3.69748 7.16123 3.30998C7.47748 2.67998 7.74248 2.15498 8.04373 1.40498ZM4.89873 8.89998C4.89173 8.90428 4.88464 8.90844 4.87748 8.91248L2.52123 10.305C2.26795 10.4544 2.07545 10.6883 1.9776 10.9657C1.87975 11.243 1.8828 11.5459 1.98623 11.8212L2.63623 13.5512C2.70311 13.7289 2.80956 13.889 2.94753 14.0194C3.08549 14.1497 3.25134 14.247 3.43248 14.3037L10.125 16.4062C10.3629 16.4811 10.6133 16.5078 10.8616 16.4847C11.1099 16.4617 11.3512 16.3893 11.5712 16.2718C11.7912 16.1544 11.9855 15.9942 12.1429 15.8007C12.3002 15.6072 12.4174 15.3843 12.4875 15.145L14.1912 9.33748C14.246 9.15103 14.2566 8.95437 14.2221 8.76311C14.1876 8.57186 14.109 8.39129 13.9925 8.23573C13.876 8.08017 13.7249 7.95392 13.5511 7.86699C13.3773 7.78007 13.1856 7.73487 12.9912 7.73498H10.4087C10.3087 7.73492 10.2102 7.71087 10.1214 7.66485C10.0327 7.61883 9.95623 7.55218 9.89855 7.4705C9.84087 7.38881 9.80363 7.29449 9.78996 7.19543C9.77629 7.09637 9.78659 6.99548 9.81999 6.90123C9.94499 6.54873 10.135 5.93873 10.29 5.27498C10.4475 4.60248 10.5587 3.92248 10.5487 3.41248C10.5362 2.82623 10.475 2.39248 10.3325 2.08373C10.21 1.81623 10.0187 1.62373 9.64248 1.51998C9.58873 1.50498 9.52499 1.50873 9.44248 1.56248C9.33479 1.63938 9.25217 1.74635 9.20498 1.86998C8.91708 2.57218 8.59802 3.2612 8.24873 3.93498C8.05499 4.31998 7.85123 4.72748 7.62748 5.20373C6.98498 6.56998 6.32748 7.47998 5.81498 8.05623C5.55998 8.34373 5.34248 8.54873 5.18248 8.68498C5.10123 8.75406 5.01698 8.81954 4.92999 8.88123L4.90998 8.89373L4.90373 8.89873L4.89998 8.89998H4.89873Z" fill="#00B800"/>
</svg>
