<svg width="13" height="12" viewBox="0 0 13 12" fill="none" xmlns="http://www.w3.org/2000/svg">
<path d="M6.10752 1.44301C6.26502 1.05226 6.70377 0.633007 7.26702 0.789007C7.70952 0.912007 7.99677 1.17976 8.16177 1.53676C8.31477 1.86901 8.35227 2.25976 8.35977 2.63326C8.36727 3.03376 8.28327 3.51526 8.18502 3.93601C8.14115 4.12226 8.09239 4.30732 8.03877 4.49101H9.07752C9.31066 4.49099 9.5406 4.54531 9.74908 4.64967C9.95757 4.75403 10.1389 4.90555 10.2785 5.09221C10.4182 5.27886 10.5125 5.49551 10.5539 5.72495C10.5952 5.9544 10.5825 6.19033 10.5168 6.41401L9.49377 9.89851C9.42351 10.1376 9.3063 10.3602 9.14901 10.5534C8.99171 10.7467 8.79748 10.9066 8.57766 11.0239C8.35785 11.1412 8.11685 11.2136 7.86876 11.2367C7.62068 11.2598 7.37047 11.2332 7.13277 11.1585L3.11577 9.89701C2.89853 9.82882 2.69967 9.71208 2.53425 9.55563C2.36883 9.39917 2.24119 9.20711 2.16102 8.99401L1.77102 7.95601C1.64691 7.62566 1.64324 7.26213 1.76066 6.92934C1.87808 6.59655 2.10907 6.31582 2.41302 6.13651L3.81702 5.30776C3.9585 5.19586 4.08977 5.07162 4.20927 4.93651C4.46727 4.64551 4.82202 4.16026 5.17827 3.40351C5.33202 3.07651 5.46102 2.81851 5.57802 2.58601C5.76777 2.20801 5.92677 1.89301 6.10752 1.44301ZM4.22052 5.94001C4.21632 5.94259 4.21207 5.94509 4.20777 5.94751L2.79402 6.78301C2.64205 6.87266 2.52655 7.01303 2.46784 7.17942C2.40913 7.34582 2.41096 7.52758 2.47302 7.69276L2.86302 8.73076C2.90315 8.83735 2.96702 8.93341 3.0498 9.01164C3.13258 9.08987 3.23208 9.14821 3.34077 9.18226L7.35627 10.4438C7.499 10.4887 7.64926 10.5047 7.79825 10.4909C7.94724 10.477 8.09197 10.4336 8.22398 10.3631C8.35598 10.2927 8.47259 10.1966 8.567 10.0805C8.6614 9.96437 8.7317 9.83061 8.77377 9.68701L9.79602 6.20251C9.8289 6.09064 9.83525 5.97264 9.81455 5.85789C9.79386 5.74314 9.74669 5.63479 9.6768 5.54146C9.60691 5.44812 9.51621 5.37237 9.41193 5.32021C9.30764 5.26806 9.19263 5.24094 9.07602 5.24101H7.52652C7.46652 5.24097 7.40741 5.22654 7.35415 5.19893C7.30088 5.17132 7.25502 5.13133 7.22041 5.08232C7.1858 5.03331 7.16346 4.97671 7.15526 4.91728C7.14705 4.85784 7.15323 4.79731 7.17327 4.74076C7.24827 4.52926 7.36227 4.16326 7.45527 3.76501C7.54977 3.36151 7.61652 2.95351 7.61052 2.64751C7.60302 2.29576 7.56627 2.03551 7.48077 1.85026C7.40727 1.68976 7.29252 1.57426 7.06677 1.51201C7.03452 1.50301 6.99627 1.50526 6.94677 1.53751C6.88215 1.58365 6.83258 1.64783 6.80427 1.72201C6.63153 2.14333 6.44009 2.55674 6.23052 2.96101C6.11427 3.19201 5.99202 3.43651 5.85777 3.72226C5.47227 4.54201 5.07777 5.08801 4.77027 5.43376C4.61727 5.60626 4.48677 5.72926 4.39077 5.81101C4.34202 5.85245 4.29147 5.89174 4.23927 5.92876L4.22727 5.93626L4.22352 5.93926L4.22127 5.94001H4.22052Z" fill="black"/>
</svg>
