<svg width="115" height="21" viewBox="0 0 115 21" fill="none" xmlns="http://www.w3.org/2000/svg">
<g clip-path="url(#clip0)">
<path d="M0.89873 15.6603C0.679345 15.6603 0.505666 15.5935 0.377692 15.46C0.249717 15.3265 0.18573 15.15 0.18573 14.9354V5.96924C0.18573 5.75462 0.249717 5.57339 0.377692 5.43509C0.505666 5.29678 0.679345 5.22524 0.89873 5.22524C1.1044 5.22524 1.27351 5.29678 1.40149 5.43509C1.52946 5.57339 1.59345 5.75462 1.59345 5.96924V14.9354C1.59345 15.15 1.52946 15.3265 1.40149 15.46C1.27351 15.5935 1.1044 15.6603 0.89873 15.6603ZM7.31573 15.6603C7.11006 15.6603 6.93638 15.5935 6.80383 15.46C6.67129 15.3265 6.60273 15.15 6.60273 14.9354V9.44124C6.60273 8.53985 6.37877 7.82447 5.92629 7.29508C5.47381 6.7657 4.89793 6.50339 4.1895 6.50339C3.43536 6.50339 2.81377 6.76093 2.32473 7.27601C1.83569 7.79109 1.59345 8.46355 1.59345 9.28862H0.587935C0.610787 8.47308 0.784467 7.75293 1.10897 7.12339C1.43348 6.49385 1.87225 6.00262 2.43442 5.64493C2.9966 5.28724 3.62733 5.11078 4.33576 5.11078C5.05333 5.11078 5.6932 5.28724 6.24623 5.64493C6.79926 6.00262 7.23346 6.50339 7.54426 7.15201C7.85505 7.80062 8.01045 8.5637 8.01045 9.44124V14.9354C8.01045 15.15 7.94646 15.3265 7.81849 15.46C7.69051 15.5935 7.5214 15.6603 7.31573 15.6603ZM13.6962 15.6603C13.4905 15.6603 13.3168 15.5935 13.1843 15.46C13.0517 15.3265 12.9832 15.15 12.9832 14.9354V9.44124C12.9832 8.53985 12.7592 7.82447 12.3067 7.29508C11.8542 6.7657 11.2784 6.50339 10.5699 6.50339C9.8158 6.50339 9.19421 6.7657 8.7143 7.29508C8.2344 7.82447 7.99674 8.52555 8.01045 9.40308H6.74899C6.7627 8.54939 6.93638 7.80062 7.27916 7.15201C7.62195 6.50339 8.08815 6.00262 8.68688 5.64493C9.28562 5.28724 9.96206 5.11078 10.7162 5.11078C11.4338 5.11078 12.0736 5.28724 12.6267 5.64493C13.1797 6.00262 13.6139 6.50339 13.9247 7.15201C14.2355 7.80062 14.3909 8.5637 14.3909 9.44124V14.9354C14.3909 15.15 14.3269 15.3265 14.1989 15.46C14.0709 15.5935 13.9018 15.6603 13.6962 15.6603Z" fill="#101010"/>
<path d="M22.9286 15.7557C21.9551 15.7557 21.0821 15.5267 20.3143 15.0689C19.5464 14.6111 18.9431 13.9815 18.5043 13.1803C18.0656 12.3791 17.8462 11.4681 17.8462 10.4523C17.8462 9.42213 18.0656 8.50644 18.5043 7.70521C18.9431 6.90398 19.5464 6.27444 20.3143 5.81659C21.0821 5.35874 21.9551 5.12982 22.9286 5.12982C23.9021 5.12982 24.7705 5.35874 25.5338 5.81659C26.2971 6.27444 26.8958 6.90398 27.3346 7.70521C27.7733 8.50644 27.9973 9.42213 28.011 10.4523C28.011 11.4681 27.787 12.3791 27.3437 13.1803C26.9004 13.9815 26.2971 14.6111 25.5338 15.0689C24.7751 15.5267 23.9067 15.7557 22.9286 15.7557ZM22.9286 14.4203C23.637 14.4203 24.2678 14.2486 24.8299 13.9052C25.3921 13.5618 25.8309 13.0897 26.1462 12.4935C26.4616 11.8974 26.6216 11.2154 26.6216 10.4523C26.6216 9.68921 26.4616 9.00721 26.1462 8.40151C25.8309 7.79582 25.3921 7.32367 24.8299 6.98028C24.2678 6.6369 23.637 6.46521 22.9286 6.46521C22.2202 6.46521 21.5894 6.6369 21.0273 6.98028C20.4651 7.32367 20.0263 7.79582 19.7018 8.40151C19.3773 9.00721 19.2173 9.68921 19.2173 10.4523C19.2173 11.2154 19.3773 11.8974 19.7018 12.4935C20.0263 13.0897 20.4651 13.5618 21.0273 13.9052C21.5894 14.2486 22.2247 14.4203 22.9286 14.4203Z" fill="#101010"/>
<path d="M36.1877 15.7557C35.2142 15.7557 34.3412 15.5267 33.5734 15.0689C32.8055 14.6111 32.2022 13.9815 31.7634 13.1803C31.3247 12.3791 31.1053 11.4681 31.1053 10.4523C31.1053 9.42213 31.3247 8.50644 31.7634 7.70521C32.2022 6.90398 32.8055 6.27444 33.5734 5.81659C34.3412 5.35874 35.2142 5.12982 36.1877 5.12982C37.1612 5.12982 38.0296 5.35874 38.7929 5.81659C39.5562 6.27444 40.1549 6.90398 40.5937 7.70521C41.0324 8.50644 41.2564 9.42213 41.2701 10.4523C41.2701 11.4681 41.0462 12.3791 40.6028 13.1803C40.1595 13.9815 39.5562 14.6111 38.7929 15.0689C38.0296 15.5267 37.1612 15.7557 36.1877 15.7557ZM36.1877 14.4203C36.8961 14.4203 37.5269 14.2486 38.089 13.9052C38.6512 13.5618 39.09 13.0897 39.4053 12.4935C39.7207 11.8974 39.8807 11.2154 39.8807 10.4523C39.8807 9.68921 39.7207 9.00721 39.4053 8.40151C39.09 7.79582 38.6512 7.32367 38.089 6.98028C37.5269 6.6369 36.8961 6.46521 36.1877 6.46521C35.4793 6.46521 34.8485 6.6369 34.2864 6.98028C33.7242 7.32367 33.2854 7.79582 32.9609 8.40151C32.6364 9.00721 32.4764 9.68921 32.4764 10.4523C32.4764 11.2154 32.6364 11.8974 32.9609 12.4935C33.2854 13.0897 33.7242 13.5618 34.2864 13.9052C34.844 14.2486 35.4793 14.4203 36.1877 14.4203Z" fill="#101010"/>
<path d="M49.4421 15.7557C48.4778 15.7557 47.6139 15.522 46.8461 15.0594C46.0783 14.5968 45.4704 13.9625 45.027 13.1612C44.5837 12.36 44.3597 11.4491 44.3597 10.4332C44.3597 9.42692 44.5746 8.52554 45.0088 7.72431C45.443 6.92308 46.028 6.28877 46.773 5.82615C47.518 5.36354 48.3589 5.12985 49.2959 5.12985C50.114 5.12985 50.8499 5.31108 51.508 5.67354C52.1662 6.036 52.6963 6.51769 53.0985 7.11385V1.50523C53.0985 1.27631 53.1671 1.09508 53.2997 0.961538C53.4322 0.828 53.6059 0.76123 53.8115 0.76123C54.0172 0.76123 54.1909 0.828 54.3234 0.961538C54.456 1.09508 54.5246 1.27631 54.5246 1.50523V10.5095C54.5017 11.5015 54.264 12.3934 53.8207 13.1898C53.3773 13.9863 52.774 14.6111 52.0108 15.0689C51.2521 15.5268 50.3928 15.7557 49.4421 15.7557ZM49.4421 14.4203C50.1506 14.4203 50.7813 14.2438 51.3343 13.8957C51.8874 13.5475 52.3261 13.0706 52.6506 12.4745C52.9751 11.8783 53.1351 11.1963 53.1351 10.4332C53.1351 9.68446 52.9751 9.00723 52.6506 8.40154C52.3261 7.79584 51.8874 7.32369 51.3343 6.98031C50.7813 6.63692 50.1506 6.46523 49.4421 6.46523C48.7474 6.46523 48.1213 6.63692 47.5591 6.98031C46.9969 7.32369 46.5536 7.79584 46.2245 8.40154C45.8954 9.00723 45.7309 9.68446 45.7309 10.4332C45.7309 11.1963 45.8954 11.8783 46.2245 12.4745C46.5536 13.0706 46.9969 13.5475 47.5591 13.8957C48.1213 14.2486 48.7474 14.4203 49.4421 14.4203Z" fill="#101010"/>
<path d="M63.7616 15.7557C62.811 15.7557 61.9563 15.5268 61.193 15.0689C60.4297 14.6111 59.8264 13.9863 59.3831 13.1898C58.9397 12.3934 58.7112 11.5015 58.6975 10.5095V1.50523C58.6975 1.27631 58.7615 1.09508 58.8895 0.961538C59.0174 0.828 59.1911 0.76123 59.4105 0.76123C59.6162 0.76123 59.7853 0.828 59.9133 0.961538C60.0412 1.09508 60.1052 1.27631 60.1052 1.50523V7.11385C60.5074 6.51769 61.0422 6.036 61.7049 5.67354C62.3676 5.31108 63.1081 5.12985 63.9262 5.12985C64.8631 5.12985 65.7041 5.36354 66.4491 5.82615C67.1941 6.28877 67.7791 6.92308 68.2133 7.72431C68.6475 8.52554 68.8623 9.42692 68.8623 10.4332C68.8623 11.4491 68.6384 12.36 68.195 13.1612C67.7517 13.9625 67.1438 14.5968 66.376 15.0594C65.6081 15.5268 64.7352 15.7557 63.7616 15.7557ZM63.7616 14.4203C64.4701 14.4203 65.1008 14.2438 65.663 13.8957C66.2251 13.5475 66.6639 13.0706 66.9884 12.4745C67.3129 11.8783 67.4729 11.1963 67.4729 10.4332C67.4729 9.68446 67.3129 9.00723 66.9884 8.40154C66.6639 7.79584 66.2251 7.32369 65.663 6.98031C65.1008 6.63692 64.4701 6.46523 63.7616 6.46523C63.0669 6.46523 62.4408 6.63692 61.8786 6.98031C61.3164 7.32369 60.8776 7.79584 60.5623 8.40154C60.2469 9.00723 60.0869 9.68446 60.0869 10.4332C60.0869 11.1963 60.2469 11.8783 60.5623 12.4745C60.8776 13.0706 61.3164 13.5475 61.8786 13.8957C62.4408 14.2486 63.0669 14.4203 63.7616 14.4203Z" fill="#101010"/>
<path d="M77.0572 15.7557C76.0837 15.7557 75.2107 15.5267 74.4429 15.0689C73.675 14.6111 73.0717 13.9815 72.6329 13.1803C72.1942 12.3791 71.9748 11.4681 71.9748 10.4523C71.9748 9.42213 72.1942 8.50644 72.6329 7.70521C73.0717 6.90398 73.675 6.27444 74.4429 5.81659C75.2107 5.35874 76.0837 5.12982 77.0572 5.12982C78.0307 5.12982 78.8991 5.35874 79.6624 5.81659C80.4257 6.27444 81.0244 6.90398 81.4632 7.70521C81.9019 8.50644 82.1259 9.42213 82.1396 10.4523C82.1396 11.4681 81.9157 12.3791 81.4723 13.1803C81.029 13.9815 80.4257 14.6111 79.6624 15.0689C78.8991 15.5267 78.0307 15.7557 77.0572 15.7557ZM77.0572 14.4203C77.7656 14.4203 78.3964 14.2486 78.9585 13.9052C79.5207 13.5618 79.9595 13.0897 80.2748 12.4935C80.5902 11.8974 80.7502 11.2154 80.7502 10.4523C80.7502 9.68921 80.5902 9.00721 80.2748 8.40151C79.9595 7.79582 79.5207 7.32367 78.9585 6.98028C78.3964 6.6369 77.7656 6.46521 77.0572 6.46521C76.3488 6.46521 75.718 6.6369 75.1559 6.98028C74.5937 7.32367 74.1549 7.79582 73.8304 8.40151C73.5059 9.00721 73.3459 9.68921 73.3459 10.4523C73.3459 11.2154 73.5059 11.8974 73.8304 12.4935C74.1549 13.0897 74.5937 13.5618 75.1559 13.9052C75.7135 14.2486 76.3488 14.4203 77.0572 14.4203Z" fill="#101010"/>
<path d="M90.3116 15.7557C89.3381 15.7557 88.4652 15.5267 87.6973 15.0689C86.9295 14.6111 86.3262 13.9815 85.8874 13.1803C85.4486 12.3791 85.2292 11.4681 85.2292 10.4523C85.2292 9.42213 85.4486 8.50644 85.8874 7.70521C86.3262 6.90398 86.9295 6.27444 87.6973 5.81659C88.4652 5.35874 89.3381 5.12982 90.3116 5.12982C91.2852 5.12982 92.1536 5.35874 92.9168 5.81659C93.6801 6.27444 94.2788 6.90398 94.7176 7.70521C95.1564 8.50644 95.3803 9.42213 95.3941 10.4523C95.3941 11.4681 95.1701 12.3791 94.7268 13.1803C94.2834 13.9815 93.6801 14.6111 92.9168 15.0689C92.1536 15.5267 91.2897 15.7557 90.3116 15.7557ZM90.3116 14.4203C91.0201 14.4203 91.6508 14.2486 92.213 13.9052C92.7752 13.5618 93.2139 13.0897 93.5293 12.4935C93.8447 11.8974 94.0046 11.2154 94.0046 10.4523C94.0046 9.68921 93.8447 9.00721 93.5293 8.40151C93.2139 7.79582 92.7752 7.32367 92.213 6.98028C91.6508 6.6369 91.0201 6.46521 90.3116 6.46521C89.6032 6.46521 88.9725 6.6369 88.4103 6.98028C87.8482 7.32367 87.4094 7.79582 87.0849 8.40151C86.7604 9.00721 86.6004 9.68921 86.6004 10.4523C86.6004 11.2154 86.7604 11.8974 87.0849 12.4935C87.4094 13.0897 87.8482 13.5618 88.4103 13.9052C88.9725 14.2486 89.6032 14.4203 90.3116 14.4203Z" fill="#101010"/>
<path d="M102.51 15.7557C101.793 15.7557 101.08 15.6269 100.371 15.3741C99.6629 15.1214 99.0916 14.7398 98.6528 14.2295C98.5203 14.0769 98.4654 13.9052 98.4883 13.7144C98.5111 13.5237 98.6025 13.3567 98.7625 13.2184C98.9316 13.0897 99.1099 13.042 99.2927 13.0658C99.4755 13.0897 99.6263 13.1755 99.7497 13.3138C100.042 13.6715 100.431 13.9434 100.911 14.1341C101.391 14.3249 101.925 14.4203 102.51 14.4203C103.411 14.4203 104.064 14.2581 104.467 13.9338C104.869 13.6095 105.074 13.2184 105.088 12.7606C105.088 12.3027 104.882 11.926 104.467 11.6255C104.051 11.3251 103.37 11.0961 102.419 10.9292C101.189 10.7241 100.284 10.3712 99.7132 9.8609C99.1418 9.35059 98.8539 8.74967 98.8539 8.04859C98.8539 7.39998 99.0184 6.86105 99.3475 6.42705C99.6766 5.99305 100.115 5.66874 100.664 5.45413C101.212 5.23951 101.816 5.12982 102.474 5.12982C103.292 5.12982 103.996 5.27767 104.585 5.56859C105.175 5.85951 105.655 6.25536 106.02 6.75136C106.144 6.91828 106.19 7.08998 106.167 7.26644C106.144 7.4429 106.043 7.59074 105.874 7.70521C105.728 7.79582 105.559 7.82444 105.371 7.79105C105.184 7.75767 105.02 7.66705 104.887 7.51444C104.581 7.14721 104.229 6.87536 103.827 6.70367C103.424 6.53198 102.963 6.44613 102.437 6.44613C101.765 6.44613 101.231 6.58921 100.828 6.87536C100.426 7.16151 100.225 7.51921 100.225 7.95321C100.225 8.24413 100.303 8.50167 100.454 8.71628C100.604 8.9309 100.87 9.12167 101.24 9.28859C101.61 9.45551 102.131 9.59382 102.803 9.70828C103.717 9.8609 104.439 10.0851 104.969 10.3855C105.499 10.686 105.879 11.0341 106.103 11.4347C106.327 11.8354 106.441 12.2694 106.441 12.7415C106.441 13.3377 106.272 13.8623 105.938 14.3154C105.605 14.7684 105.138 15.1214 104.549 15.3741C103.955 15.6317 103.278 15.7557 102.51 15.7557Z" fill="#101010"/>
<path d="M109.11 6.8849C108.927 6.8849 108.777 6.8229 108.653 6.70367C108.53 6.58444 108.47 6.43182 108.47 6.25536C108.47 6.06459 108.53 5.90721 108.653 5.78798C108.777 5.66874 108.927 5.60675 109.11 5.60675H113.772C113.955 5.60675 114.106 5.66874 114.229 5.78798C114.353 5.90721 114.412 6.06459 114.412 6.25536C114.412 6.43182 114.353 6.58444 114.229 6.70367C114.106 6.8229 113.955 6.8849 113.772 6.8849H109.11ZM113.662 15.6603C113.018 15.6603 112.442 15.5029 111.935 15.1834C111.427 14.8638 111.03 14.4298 110.737 13.8766C110.445 13.3234 110.298 12.6891 110.298 11.9784V2.64982C110.298 2.43521 110.362 2.25398 110.49 2.11567C110.618 1.97736 110.788 1.90582 110.993 1.90582C111.199 1.90582 111.373 1.97736 111.505 2.11567C111.638 2.25398 111.706 2.43521 111.706 2.64982V11.9784C111.706 12.6271 111.889 13.1564 112.255 13.5714C112.62 13.9863 113.091 14.1914 113.662 14.1914H114.156C114.353 14.1914 114.508 14.2629 114.631 14.4012C114.755 14.5395 114.814 14.7207 114.814 14.9354C114.814 15.15 114.741 15.3264 114.595 15.46C114.449 15.5935 114.266 15.6603 114.046 15.6603H113.662Z" fill="#101010"/>
<path d="M32.8923 17.3773C32.6729 17.3773 32.4627 17.4726 32.3393 17.6396C31.7451 18.4503 30.735 18.9845 29.5924 18.9845C28.4498 18.9845 27.4397 18.4503 26.8455 17.6396C26.7221 17.4726 26.5119 17.3773 26.2925 17.3773C25.7395 17.3773 25.4195 17.9448 25.7303 18.3645C26.5713 19.4948 27.9882 20.2388 29.597 20.2388C31.2058 20.2388 32.6181 19.4948 33.4636 18.3645C33.7699 17.9448 33.4454 17.3773 32.8923 17.3773Z" fill="#101010"/>
</g>
<defs>
<clipPath id="clip0">
<rect width="115" height="20" fill="white" transform="translate(0 0.5)"/>
</clipPath>
</defs>
</svg>
