<svg width="36" height="36" viewBox="0 0 36 36" fill="none" xmlns="http://www.w3.org/2000/svg">
<path d="M0 17.9998C0 25.3703 4.4322 31.7022 10.7745 34.4861C10.7239 33.2292 10.7655 31.7203 11.0878 30.3528C11.4339 28.8916 13.4039 20.5448 13.4039 20.5448C13.4039 20.5448 12.8289 19.3955 12.8289 17.6969C12.8289 15.0294 14.3749 13.0373 16.3003 13.0373C17.9376 13.0373 18.7286 14.267 18.7286 15.7396C18.7286 17.3854 17.6789 19.8473 17.139 22.1274C16.688 24.0368 18.0964 25.5942 19.9801 25.5942C23.3905 25.5942 25.6874 21.214 25.6874 16.0242C25.6874 12.0792 23.0303 9.12645 18.1975 9.12645C12.7373 9.12645 9.33578 13.1983 9.33578 17.7465C9.33578 19.3147 9.79815 20.4206 10.5224 21.277C10.8554 21.6703 10.9016 21.8285 10.7811 22.2802C10.6948 22.6113 10.4965 23.4086 10.4144 23.7246C10.2946 24.1805 9.92513 24.3435 9.5131 24.1752C6.99818 23.1485 5.82691 20.3944 5.82691 17.2985C5.82691 12.1854 10.1393 6.0543 18.6915 6.0543C25.5638 6.0543 30.087 11.0272 30.087 16.3653C30.087 23.4264 26.1614 28.7015 20.3747 28.7015C18.4314 28.7015 16.6034 27.651 15.9772 26.4579C15.9772 26.4579 14.9322 30.6051 14.7109 31.4059C14.3292 32.7937 13.5822 34.1808 12.8992 35.2619C14.5554 35.7516 16.2735 36.0002 18.0006 36C27.9405 36 36 27.9411 36 17.9998C36 8.05886 27.9405 0 18.0006 0C8.05975 0 0 8.05886 0 17.9998Z" fill="#CB1F27"/>
</svg>
