<svg width="36" height="36" viewBox="0 0 36 36" fill="none" xmlns="http://www.w3.org/2000/svg">
<path d="M18 0C8.0588 0 0 8.0588 0 18C0 27.9412 8.0588 36 18 36C27.9412 36 36 27.9412 36 18C36 8.0588 27.9412 0 18 0Z" fill="#40B3E0"/>
<path d="M26.7587 10.3543L23.5436 26.564C23.5436 26.564 23.094 27.6882 21.8575 27.1486L14.4384 21.4606L11.7407 20.1567L7.19933 18.6279C7.19933 18.6279 6.50239 18.3807 6.43489 17.8411C6.36739 17.3015 7.22183 17.0093 7.22183 17.0093L25.2747 9.92741C25.2747 9.92741 26.7586 9.27547 26.7586 10.3546" fill="white"/>
<path d="M13.8685 26.3817C13.8685 26.3817 13.6519 26.3615 13.3819 25.507C13.1124 24.6527 11.7408 20.1564 11.7408 20.1564L22.6446 13.232C22.6446 13.232 23.2742 12.8498 23.2517 13.232C23.2517 13.232 23.3641 13.2995 23.0267 13.6142C22.6896 13.9291 14.4612 21.3255 14.4612 21.3255" fill="#D2E5F1"/>
<path d="M17.2826 23.6413L14.3482 26.3168C14.3482 26.3168 14.1187 26.4909 13.8678 26.3818L14.4297 21.4121" fill="#B5CFE4"/>
</svg>
