<svg width="252" height="46" fill="none" xmlns="http://www.w3.org/2000/svg"><path d="M2.16 33.82c-.48 0-.86-.14-1.14-.42-.28-.28-.42-.65-.42-1.1V13.5c0-.45.14-.83.42-1.12.28-.29.66-.44 1.14-.44.45 0 .82.15 1.1.44.28.29.42.67.42 1.12v18.8c0 .45-.14.82-.42 1.1-.28.28-.65.42-1.1.42zm14.04 0c-.45 0-.83-.14-1.12-.42-.29-.28-.44-.65-.44-1.1V20.78c0-1.89-.49-3.39-1.48-4.5-.99-1.11-2.25-1.66-3.8-1.66-1.65 0-3.01.54-4.08 1.62-1.07 1.08-1.6 2.49-1.6 4.22h-2.2c.05-1.71.43-3.22 1.14-4.54.71-1.32 1.67-2.35 2.9-3.1s2.61-1.12 4.16-1.12c1.57 0 2.97.37 4.18 1.12 1.21.75 2.16 1.8 2.84 3.16.68 1.36 1.02 2.96 1.02 4.8V32.3c0 .45-.14.82-.42 1.1-.28.28-.65.42-1.1.42zm13.96 0c-.45 0-.83-.14-1.12-.42-.29-.28-.44-.65-.44-1.1V20.78c0-1.89-.49-3.39-1.48-4.5-.99-1.11-2.25-1.66-3.8-1.66-1.65 0-3.01.55-4.06 1.66-1.05 1.11-1.57 2.58-1.54 4.42h-2.76c.03-1.79.41-3.36 1.16-4.72.75-1.36 1.77-2.41 3.08-3.16s2.79-1.12 4.44-1.12c1.57 0 2.97.37 4.18 1.12 1.21.75 2.16 1.8 2.84 3.16.68 1.36 1.02 2.96 1.02 4.8V32.3c0 .45-.14.82-.42 1.1-.28.28-.65.42-1.1.42zm20.2.2c-2.13 0-4.04-.48-5.72-1.44-1.68-.96-3-2.28-3.96-3.96-.96-1.68-1.44-3.59-1.44-5.72 0-2.16.48-4.08 1.44-5.76.96-1.68 2.28-3 3.96-3.96 1.68-.96 3.59-1.44 5.72-1.44s4.03.48 5.7 1.44 2.98 2.28 3.94 3.96c.96 1.68 1.45 3.6 1.48 5.76 0 2.13-.49 4.04-1.46 5.72a10.6 10.6 0 01-3.96 3.96c-1.66.96-3.56 1.44-5.7 1.44zm0-2.8c1.55 0 2.93-.36 4.16-1.08a7.656 7.656 0 002.88-2.96c.69-1.25 1.04-2.68 1.04-4.28s-.35-3.03-1.04-4.3a7.574 7.574 0 00-2.88-2.98c-1.23-.72-2.61-1.08-4.16-1.08-1.55 0-2.93.36-4.16 1.08-1.23.72-2.19 1.71-2.9 2.98s-1.06 2.7-1.06 4.3c0 1.6.35 3.03 1.06 4.28.71 1.25 1.67 2.24 2.9 2.96 1.23.72 2.62 1.08 4.16 1.08zm29.01 2.8c-2.13 0-4.04-.48-5.72-1.44-1.68-.96-3-2.28-3.96-3.96-.96-1.68-1.44-3.59-1.44-5.72 0-2.16.48-4.08 1.44-5.76.96-1.68 2.28-3 3.96-3.96 1.68-.96 3.59-1.44 5.72-1.44s4.03.48 5.7 1.44 2.98 2.28 3.94 3.96c.96 1.68 1.45 3.6 1.48 5.76 0 2.13-.49 4.04-1.46 5.72a10.6 10.6 0 01-3.96 3.96c-1.67.96-3.57 1.44-5.7 1.44zm0-2.8c1.55 0 2.93-.36 4.16-1.08a7.656 7.656 0 002.88-2.96c.69-1.25 1.04-2.68 1.04-4.28s-.35-3.03-1.04-4.3a7.574 7.574 0 00-2.88-2.98c-1.23-.72-2.61-1.08-4.16-1.08-1.55 0-2.93.36-4.16 1.08-1.23.72-2.19 1.71-2.9 2.98s-1.06 2.7-1.06 4.3c0 1.6.35 3.03 1.06 4.28.71 1.25 1.67 2.24 2.9 2.96 1.22.72 2.61 1.08 4.16 1.08zm29 2.8c-2.11 0-4-.49-5.68-1.46-1.68-.97-3.01-2.3-3.98-3.98-.97-1.68-1.46-3.59-1.46-5.72 0-2.11.47-4 1.42-5.68.95-1.68 2.23-3.01 3.86-3.98 1.63-.97 3.47-1.46 5.52-1.46 1.79 0 3.4.38 4.84 1.14 1.44.76 2.6 1.77 3.48 3.02V4.14c0-.48.15-.86.44-1.14.29-.28.67-.42 1.12-.42.45 0 .83.14 1.12.42.29.28.44.66.44 1.14v18.88c-.05 2.08-.57 3.95-1.54 5.62a10.62 10.62 0 01-3.96 3.94c-1.66.96-3.54 1.44-5.62 1.44zm0-2.8c1.55 0 2.93-.37 4.14-1.1a8.076 8.076 0 002.88-2.98c.71-1.25 1.06-2.68 1.06-4.28 0-1.57-.35-2.99-1.06-4.26a7.857 7.857 0 00-2.88-2.98c-1.21-.72-2.59-1.08-4.14-1.08-1.52 0-2.89.36-4.12 1.08-1.23.72-2.2 1.71-2.92 2.98-.72 1.27-1.08 2.69-1.08 4.26 0 1.6.36 3.03 1.08 4.28a8.104 8.104 0 002.92 2.98c1.23.74 2.6 1.1 4.12 1.1zm31.33 2.8c-2.08 0-3.95-.48-5.62-1.44a10.62 10.62 0 01-3.96-3.94c-.97-1.67-1.47-3.54-1.5-5.62V4.14c0-.48.14-.86.42-1.14.28-.28.66-.42 1.14-.42.45 0 .82.14 1.1.42.28.28.42.66.42 1.14V15.9c.88-1.25 2.05-2.26 3.5-3.02 1.45-.76 3.07-1.14 4.86-1.14 2.05 0 3.89.49 5.52 1.46 1.63.97 2.91 2.3 3.86 3.98.95 1.68 1.42 3.57 1.42 5.68 0 2.13-.49 4.04-1.46 5.72-.97 1.68-2.3 3.01-3.98 3.98-1.68.98-3.59 1.46-5.72 1.46zm0-2.8c1.55 0 2.93-.37 4.16-1.1 1.23-.73 2.19-1.73 2.9-2.98s1.06-2.68 1.06-4.28c0-1.57-.35-2.99-1.06-4.26-.71-1.27-1.67-2.26-2.9-2.98-1.23-.72-2.61-1.08-4.16-1.08-1.52 0-2.89.36-4.12 1.08a7.574 7.574 0 00-2.88 2.98c-.69 1.27-1.04 2.69-1.04 4.26 0 1.6.35 3.03 1.04 4.28a7.777 7.777 0 002.88 2.98c1.23.74 2.6 1.1 4.12 1.1zm29.09 2.8c-2.13 0-4.04-.48-5.72-1.44-1.68-.96-3-2.28-3.96-3.96-.96-1.68-1.44-3.59-1.44-5.72 0-2.16.48-4.08 1.44-5.76.96-1.68 2.28-3 3.96-3.96 1.68-.96 3.59-1.44 5.72-1.44s4.03.48 5.7 1.44 2.98 2.28 3.94 3.96c.96 1.68 1.45 3.6 1.48 5.76 0 2.13-.49 4.04-1.46 5.72a10.6 10.6 0 01-3.96 3.96c-1.67.96-3.57 1.44-5.7 1.44zm0-2.8c1.55 0 2.93-.36 4.16-1.08a7.656 7.656 0 002.88-2.96c.69-1.25 1.04-2.68 1.04-4.28s-.35-3.03-1.04-4.3a7.574 7.574 0 00-2.88-2.98c-1.23-.72-2.61-1.08-4.16-1.08-1.55 0-2.93.36-4.16 1.08-1.23.72-2.19 1.71-2.9 2.98s-1.06 2.7-1.06 4.3c0 1.6.35 3.03 1.06 4.28.71 1.25 1.67 2.24 2.9 2.96 1.22.72 2.61 1.08 4.16 1.08zm29 2.8c-2.13 0-4.04-.48-5.72-1.44-1.68-.96-3-2.28-3.96-3.96-.96-1.68-1.44-3.59-1.44-5.72 0-2.16.48-4.08 1.44-5.76.96-1.68 2.28-3 3.96-3.96 1.68-.96 3.59-1.44 5.72-1.44s4.03.48 5.7 1.44 2.98 2.28 3.94 3.96c.96 1.68 1.45 3.6 1.48 5.76 0 2.13-.49 4.04-1.46 5.72a10.6 10.6 0 01-3.96 3.96c-1.67.96-3.56 1.44-5.7 1.44zm0-2.8c1.55 0 2.93-.36 4.16-1.08a7.656 7.656 0 002.88-2.96c.69-1.25 1.04-2.68 1.04-4.28s-.35-3.03-1.04-4.3a7.574 7.574 0 00-2.88-2.98c-1.23-.72-2.61-1.08-4.16-1.08-1.55 0-2.93.36-4.16 1.08-1.23.72-2.19 1.71-2.9 2.98s-1.06 2.7-1.06 4.3c0 1.6.35 3.03 1.06 4.28.71 1.25 1.67 2.24 2.9 2.96 1.23.72 2.61 1.08 4.16 1.08zm26.69 2.8c-1.57 0-3.13-.27-4.68-.8-1.55-.53-2.8-1.33-3.76-2.4-.29-.32-.41-.68-.36-1.08.05-.4.25-.75.6-1.04.37-.27.76-.37 1.16-.32.4.05.73.23 1 .52.64.75 1.49 1.32 2.54 1.72 1.05.4 2.22.6 3.5.6 1.97 0 3.4-.34 4.28-1.02.88-.68 1.33-1.5 1.36-2.46 0-.96-.45-1.75-1.36-2.38-.91-.63-2.4-1.11-4.48-1.46-2.69-.43-4.67-1.17-5.92-2.24-1.25-1.07-1.88-2.33-1.88-3.8 0-1.36.36-2.49 1.08-3.4.72-.91 1.68-1.59 2.88-2.04 1.2-.45 2.52-.68 3.96-.68 1.79 0 3.33.31 4.62.92 1.29.61 2.34 1.44 3.14 2.48.27.35.37.71.32 1.08-.05.37-.27.68-.64.92-.32.19-.69.25-1.1.18a1.81 1.81 0 01-1.06-.58c-.67-.77-1.44-1.34-2.32-1.7-.88-.36-1.89-.54-3.04-.54-1.47 0-2.64.3-3.52.9-.88.6-1.32 1.35-1.32 2.26 0 .61.17 1.15.5 1.6.33.45.91.85 1.72 1.2.81.35 1.95.64 3.42.88 2 .32 3.58.79 4.74 1.42 1.16.63 1.99 1.36 2.48 2.2.49.84.74 1.75.74 2.74 0 1.25-.37 2.35-1.1 3.3-.73.95-1.75 1.69-3.04 2.22-1.3.54-2.78.8-4.46.8zm14.44-18.6c-.4 0-.73-.13-1-.38s-.4-.57-.4-.94c0-.4.13-.73.4-.98s.6-.38 1-.38h10.2c.4 0 .73.13 1 .38s.4.58.4.98c0 .37-.13.69-.4.94s-.6.38-1 .38h-10.2zm9.96 18.4c-1.41 0-2.67-.33-3.78-1a7.19 7.19 0 01-2.62-2.74c-.64-1.16-.96-2.49-.96-3.98V6.54c0-.45.14-.83.42-1.12.28-.29.65-.44 1.1-.44.45 0 .83.15 1.12.44.29.29.44.67.44 1.12V26.1c0 1.36.4 2.47 1.2 3.34.8.87 1.83 1.3 3.08 1.3h1.08c.43 0 .77.15 1.04.44.27.29.4.67.4 1.12 0 .45-.16.82-.48 1.1-.32.28-.72.42-1.2.42h-.84zm-176.72 3.6c-.48 0-.94.2-1.21.55-1.3 1.7-3.51 2.82-6.01 2.82s-4.71-1.12-6.01-2.82c-.27-.35-.73-.55-1.21-.55-1.21 0-1.91 1.19-1.23 2.07 1.84 2.37 4.94 3.93 8.46 3.93 3.52 0 6.61-1.56 8.46-3.93.67-.88-.04-2.07-1.25-2.07z" fill="#000"/></svg>