<svg viewBox="0 0 64 64" xmlns="http://www.w3.org/2000/svg"><path d="M57.642 53.62l-12.33-12.329a1.205 1.205 0 00-.862-.355h-1.34a21.067 21.067 0 005.138-13.812C48.248 15.455 38.793 6 27.124 6 15.455 6 6 15.455 6 27.124c0 11.669 9.455 21.124 21.124 21.124 5.281 0 10.105-1.94 13.812-5.139v1.34c0 .326.132.63.355.864l12.33 12.329a1.22 1.22 0 001.726 0l2.295-2.295a1.22 1.22 0 000-1.727zM27.124 43.373c-8.978 0-16.25-7.271-16.25-16.249 0-8.978 7.272-16.25 16.25-16.25s16.25 7.272 16.25 16.25-7.272 16.25-16.25 16.25z" fill="currentColor"/></svg>