<svg width="14" height="14" viewBox="0 0 14 14" fill="none" xmlns="http://www.w3.org/2000/svg">
<g clip-path="url(#clip0)">
<path d="M6.58128 3.75C3.19478 3.75 0.589091 6.7335 0.589091 6.7335L0.347778 7L0.589091 7.2665C0.589091 7.2665 2.96484 9.97537 6.12425 10.2248C6.27497 10.2435 6.42568 10.25 6.58128 10.25C6.73687 10.25 6.88759 10.2435 7.03831 10.2244C10.1977 9.97538 12.5735 7.26691 12.5735 7.26691L12.8148 7L12.5735 6.7335C12.5735 6.7335 9.96778 3.75 6.58128 3.75ZM6.58128 4.5625C7.47625 4.5625 8.30134 4.80706 9.01878 5.13369C9.27756 5.56228 9.42503 6.05588 9.42503 6.59375C9.42675 7.29404 9.16983 7.9703 8.70356 8.49279C8.2373 9.01529 7.59453 9.34722 6.89856 9.42491C6.89043 9.42653 6.88109 9.42328 6.87337 9.42491C6.77628 9.42938 6.67959 9.4375 6.58128 9.4375C6.47322 9.4375 6.36881 9.431 6.264 9.42491C5.56803 9.34722 4.92526 9.01529 4.45899 8.49279C3.99273 7.9703 3.73581 7.29404 3.73753 6.59375C3.73753 6.06359 3.88053 5.57 4.13118 5.14628H4.11859C4.84131 4.81316 5.67656 4.5625 6.58128 4.5625ZM6.58128 5.375C6.25794 5.37511 5.94788 5.50366 5.71932 5.73237C5.49076 5.96108 5.36242 6.27122 5.36253 6.59456C5.36264 6.9179 5.49119 7.22796 5.7199 7.45652C5.94861 7.68508 6.25875 7.81342 6.58209 7.81331C6.74219 7.81326 6.90072 7.78167 7.04861 7.72035C7.1965 7.65904 7.33087 7.56919 7.44405 7.45594C7.55722 7.3427 7.64697 7.20827 7.70819 7.06033C7.76941 6.9124 7.80089 6.75385 7.80084 6.59375C7.80079 6.43365 7.7692 6.27512 7.70788 6.12723C7.64656 5.97934 7.55672 5.84497 7.44347 5.7318C7.33022 5.61862 7.1958 5.52887 7.04786 5.46765C6.89992 5.40643 6.74138 5.37495 6.58128 5.375ZM3.02659 5.75606C2.96054 6.03044 2.92646 6.31154 2.92503 6.59375C2.92503 7.30631 3.12815 7.97297 3.48362 8.53603C2.76245 8.11356 2.10068 7.59702 1.51575 7C1.97622 6.53545 2.4824 6.11855 3.02659 5.75566V5.75606ZM10.136 5.75606C10.6801 6.11883 11.1863 6.53559 11.6468 7C11.0619 7.59702 10.4001 8.11356 9.67893 8.53603C10.0454 7.9546 10.2391 7.28102 10.2375 6.59375C10.2375 6.30328 10.1993 6.02581 10.136 5.75566V5.75606Z" fill="black"/>
</g>
<defs>
<clipPath id="clip0">
<rect width="13" height="13" fill="white" transform="translate(0.0812683 0.5)"/>
</clipPath>
</defs>
</svg>
